# xmcd CD database file
#
# Track frame offsets:
#	150
#	13780
#	29385
#	43414
#	61497
#	78165
#	92825
#	108320
#	123820
#	140665
#
# Disc length: 2150 seconds
#
# Revision: 3
# Processed by: cddbd v1.5.2PL0 Copyright (c) Steve Scherf et al.
# Submitted via: CDex 1.51
#
DISCID=8308640a
DTITLE=Earl Thomas Conley - Perpetual Emotion
DYEAR=1998
DGENRE=Country
TTITLE0=I Ain't Crazy
TTITLE1=It Should've Been Over By Now
TTITLE2=The Closer You Are
TTITLE3=Scared Money Never Wins
TTITLE4=You Don't Have To Live With It
TTITLE5=Holding Her And Loving You
TTITLE6=Don't Make It Easy For Me
TTITLE7=Your Love's On The Line
TTITLE8=Once In A Blue Moon
TTITLE9=I Can't Win For Losing You
EXTD=YEAR: 1998
EXTT0=
EXTT1=
EXTT2=
EXTT3=
EXTT4=
EXTT5=
EXTT6=
EXTT7=
EXTT8=
EXTT9=
PLAYORDER=
